<?xml version="1.0" standalone="no"?>
<!DOCTYPE svg PUBLIC "-//W3C//DTD SVG 20010904//EN"
 "http://www.w3.org/TR/2001/REC-SVG-20010904/DTD/svg10.dtd">
<svg version="1.0" xmlns="http://www.w3.org/2000/svg"
 width="260.000000pt" height="260.000000pt" viewBox="0 0 260.000000 260.000000"
 preserveAspectRatio="xMidYMid meet">
<metadata>
Created by potrace 1.11, written by Peter Selinger 2001-2013
</metadata>
<g transform="translate(0.000000,260.000000) scale(0.100000,-0.100000)"
fill="#000000" stroke="none">
<path d="M1169 2596 c-2 -2 -31 -7 -64 -11 -32 -3 -62 -8 -65 -10 -4 -2 -21
-7 -39 -10 -52 -9 -180 -54 -258 -91 -310 -146 -573 -442 -673 -759 -12 -38
-25 -77 -28 -85 -9 -27 -18 -70 -30 -145 -8 -60 -8 -337 1 -380 4 -16 11 -50
16 -75 6 -25 13 -58 16 -75 4 -16 10 -39 15 -50 4 -11 23 -57 40 -103 91 -232
305 -484 520 -611 110 -65 286 -138 379 -156 256 -53 508 -40 725 36 227 80
421 215 579 404 101 120 179 263 230 421 20 60 39 125 42 144 17 104 20 137
19 265 -1 152 -4 184 -29 290 -24 99 -17 78 -58 185 -42 111 -136 270 -210
356 -70 82 -174 175 -265 238 -97 67 -292 157 -397 183 -33 8 -108 24 -140 29
-36 6 -321 15 -326 10z"/>
</g>
</svg>
